<svg xmlns="http://www.w3.org/2000/svg" width="1200" height="420" viewBox="0 0 1200 420" role="img" aria-label="KorteBarber">
  <defs>
    <linearGradient id="kb" x1="0" x2="1" y1="1" y2="0"><stop stop-color="#1E40AF"/><stop offset=".55" stop-color="#2563EB"/><stop offset="1" stop-color="#00B2FF"/></linearGradient>
    <filter id="shadow" x="-20%" y="-20%" width="140%" height="140%"><feDropShadow dx="0" dy="18" stdDeviation="18" flood-color="#002B7A" flood-opacity=".45"/></filter>
  </defs>
  <rect width="1200" height="420" rx="34" fill="#0A0F1C"/>
  <g filter="url(#shadow)" transform="translate(80 72)">
    <path d="M0 0h86c12 0 22 10 22 22v254H22c-12 0-22-10-22-22z" fill="url(#kb)"/>
    <path d="M120 124 260 0h100c20 0 30 24 15 38L227 176l148 138c15 14 5 38-15 38h-98L120 224c-28-26-28-72 0-100z" fill="url(#kb)"/>
  </g>
  <text x="430" y="190" font-family="Inter, Arial, sans-serif" font-size="92" font-weight="900" fill="#fff">Korte<tspan fill="#007BFF">Barber</tspan></text>
  <text x="436" y="258" font-family="Inter, Arial, sans-serif" font-size="27" font-weight="700" letter-spacing="18" fill="#94A3B8">SISTEMA PARA BARBEARIAS</text>
</svg>